# xmcd CD database file
#
# Track frame offsets:
#	150
#	21040
#	37988
#	61990
#	80373
#	101518
#	118877
#	137518
#	154644
#	173679
#	195838
#	218665
#	239361
#	257991
#	272954
#	302645
#
# Disc length: 4723 seconds
#
# Revision: 3
# Processed by: cddbd v1.5.2PL0 Copyright (c) Steve Scherf et al.
# Submitted via: CDex 1.70beta2
#
DISCID=cf127110
DTITLE=Faith Hill - CRY
DYEAR=2002
DGENRE=Country
TTITLE0=Free
TTITLE1=Cry
TTITLE2=One
TTITLE3=When The Lights Go Down
TTITLE4=Beautiful
TTITLE5=Unsaveable
TTITLE6=Baby You Belong
TTITLE7=If You're Gonna Fly Away
TTITLE8=Stronger
TTITLE9=If This Is The End
TTITLE10=This Is Me
TTITLE11=Back To You
TTITLE12=I Think I Will
TTITLE13=You're Still Here
TTITLE14=Wicked [Bonus Track]
TTITLE15=DATA
EXTD=YEAR: 2002
EXTT0=
EXTT1=
EXTT2=
EXTT3=
EXTT4=
EXTT5=
EXTT6=
EXTT7=
EXTT8=
EXTT9=
EXTT10=
EXTT11=
EXTT12=
EXTT13=
EXTT14=Bonus Track Only For Japan
EXTT15=
PLAYORDER=
